<svg xmlns="http://www.w3.org/2000/svg" viewBox="0 0 450 100">
  <g fill="#052960">
    <path d="M20,25h12v20h24v-20h12v50H56v-18H32v18H20V25z"/>
    <path d="M105,25c-15,0-27,12-27,25s12,25,27,25c11,0,20-7,25-16l-10-5c-3,6-8,9-14,9c-8,0-15-7-15-13s7-13,15-13c6,0,11,3,14,8l10-5C125,29,116,25,105,25z"/>
    <path d="M140,25h12v38h24v12h-36V25z"/>
    <path d="M205,35h-15v-10h42v10h-15v40h-12V35z"/>
    <path d="M245,45c0-11,9-20,20-20s20,9,20,20v5h-28c0,5,5,8,10,8c4,0,7-2,9-5l10,3c-3,7-10,12-19,12C253,68,245,58,245,45zm28-5c0-4-3-8-8-8s-8,4-8,8H273z"/>
    <path d="M325,45c0-11,9-20,20-20c11,0,20,9,20,20c0,1-1,5-1,5h-28c1,4,5,8,10,8c4,0,7-2,9-5l10,3c-3,7-10,12-19,12C333,68,325,58,325,45z"/>
    <path d="M375,10h12v25c4-6,10-10,18-10c14,0,22,10,22,25v25h-12V50c0-9-5-15-13-15c-8,0-15,6-15,15v25h-12V10z"/>
  </g>
  <circle cx="128" cy="70" r="5" fill="#F37021"/>
</svg>
